<svg version="1.1" xmlns="http://www.w3.org/2000/svg" viewBox="0 0 300 199">
  <circle cx="44" cy="6" r="4" fill="#cd3731"></circle>
  <text x="44" y="11" font-size="4" font-family="system-ui" alignment-baseline="hanging" text-anchor="middle">npmci</text>
  <text x="44" y="16" font-size="3" font-family="system-ui" alignment-baseline="hanging" text-anchor="middle">v6.1.0</text>
  <circle cx="56" cy="6" r="4" fill="#248ebd"></circle>
  <text x="56" y="11" font-size="4" font-family="system-ui" alignment-baseline="hanging" text-anchor="middle">npm</text>
  <text x="56" y="16" font-size="3" font-family="system-ui" alignment-baseline="hanging" text-anchor="middle">v6.1.0</text>
  <circle cx="68" cy="6" r="4" fill="#fbae00"></circle>
  <text x="68" y="11" font-size="4" font-family="system-ui" alignment-baseline="hanging" text-anchor="middle">yarn</text>
  <text x="68" y="16" font-size="3" font-family="system-ui" alignment-baseline="hanging" text-anchor="middle">v1.7.0</text>
  <circle cx="80" cy="6" r="4" fill="undefined"></circle>
  <text x="80" y="11" font-size="4" font-family="system-ui" alignment-baseline="hanging" text-anchor="middle">pnpm</text>
  <text x="80" y="16" font-size="3" font-family="system-ui" alignment-baseline="hanging" text-anchor="middle">v2.9.0</text>
  <text x="40" y="28" fill="#888" font-size="5" font-family="system-ui" text-anchor="middle">0</text>
  <text x="40" y="186" fill="#888" font-size="5" font-family="system-ui" text-anchor="middle" alignment-baseline="hanging">0</text>
  <line x1="90" y1="31" x2="90" y2="185" stroke-width="0.5" stroke="#cacaca"></line>
  <text x="90" y="28" fill="#888" font-size="5" font-family="system-ui" text-anchor="middle">13</text>
  <text x="90" y="186" fill="#888" font-size="5" font-family="system-ui" text-anchor="middle" alignment-baseline="hanging">13</text>
  <line x1="140" y1="31" x2="140" y2="185" stroke-width="0.5" stroke="#cacaca"></line>
  <text x="140" y="28" fill="#888" font-size="5" font-family="system-ui" text-anchor="middle">26</text>
  <text x="140" y="186" fill="#888" font-size="5" font-family="system-ui" text-anchor="middle" alignment-baseline="hanging">26</text>
  <line x1="190" y1="31" x2="190" y2="185" stroke-width="0.5" stroke="#cacaca"></line>
  <text x="190" y="28" fill="#888" font-size="5" font-family="system-ui" text-anchor="middle">39</text>
  <text x="190" y="186" fill="#888" font-size="5" font-family="system-ui" text-anchor="middle" alignment-baseline="hanging">39</text>
  <line x1="240" y1="31" x2="240" y2="185" stroke-width="0.5" stroke="#cacaca"></line>
  <text x="240" y="28" fill="#888" font-size="5" font-family="system-ui" text-anchor="middle">52</text>
  <text x="240" y="186" fill="#888" font-size="5" font-family="system-ui" text-anchor="middle" alignment-baseline="hanging">52</text>
  <line x1="290" y1="31" x2="290" y2="185" stroke-width="0.5" stroke="#cacaca"></line>
  <text x="290" y="28" fill="#888" font-size="5" font-family="system-ui" text-anchor="middle">65</text>
  <text x="290" y="186" fill="#888" font-size="5" font-family="system-ui" text-anchor="middle" alignment-baseline="hanging">65</text>
  <text x="290" y="20" font-size="4" font-family="system-ui" font-style="italic" text-anchor="end" fill="#888">Installation time in seconds (lower is better)</text>
  <rect x="40" y="35" width="125" height="6" fill="#cd3731" rx="1" ry="1"></rect>
  <rect x="40" y="41.5" width="134" height="6" fill="#248ebd" rx="1" ry="1"></rect>
  <rect x="40" y="48" width="238" height="6" fill="#fbae00" rx="1" ry="1"></rect>
  <rect x="40" y="54.5" width="195" height="6" fill="undefined" rx="1" ry="1"></rect>
  <rect x="40" y="65" width="85" height="6" fill="#cd3731" rx="1" ry="1"></rect>
  <rect x="40" y="71.5" width="48" height="6" fill="#248ebd" rx="1" ry="1"></rect>
  <rect x="40" y="78" width="4" height="6" fill="#fbae00" rx="1" ry="1"></rect>
  <rect x="40" y="84.5" width="8" height="6" fill="undefined" rx="1" ry="1"></rect>
  <rect x="40" y="95" width="52" height="6" fill="#cd3731" rx="1" ry="1"></rect>
  <rect x="40" y="101.5" width="111" height="6" fill="#248ebd" rx="1" ry="1"></rect>
  <rect x="40" y="108" width="43" height="6" fill="#fbae00" rx="1" ry="1"></rect>
  <rect x="40" y="114.5" width="48" height="6" fill="undefined" rx="1" ry="1"></rect>
  <rect x="40" y="125" width="81" height="6" fill="#cd3731" rx="1" ry="1"></rect>
  <rect x="40" y="131.5" width="142" height="6" fill="#248ebd" rx="1" ry="1"></rect>
  <rect x="40" y="138" width="168" height="6" fill="#fbae00" rx="1" ry="1"></rect>
  <rect x="40" y="144.5" width="164" height="6" fill="undefined" rx="1" ry="1"></rect>
  <rect x="40" y="155" width="95" height="6" fill="#cd3731" rx="1" ry="1"></rect>
  <rect x="40" y="161.5" width="50" height="6" fill="#248ebd" rx="1" ry="1"></rect>
  <rect x="40" y="168" width="6" height="6" fill="#fbae00" rx="1" ry="1"></rect>
  <rect x="40" y="174.5" width="6" height="6" fill="undefined" rx="1" ry="1"></rect>
  <line x1="40" y1="31" x2="40" y2="185" stroke-width="1" stroke="#cacaca"></line>
  <text x="38" y="44.5" font-size="4" font-family="system-ui" alignment-baseline="middle" text-anchor="end">clean install</text>
  <text x="38" y="70.5" font-size="4" font-family="system-ui" alignment-baseline="middle" text-anchor="end">with cache</text>
  <text x="38" y="74.5" font-size="4" font-family="system-ui" alignment-baseline="middle" text-anchor="end">with lockfile</text>
  <text x="38" y="78.5" font-size="4" font-family="system-ui" alignment-baseline="middle" text-anchor="end">with node_modules</text>
  <text x="38" y="102.5" font-size="4" font-family="system-ui" alignment-baseline="middle" text-anchor="end">with cache</text>
  <text x="38" y="106.5" font-size="4" font-family="system-ui" alignment-baseline="middle" text-anchor="end">with lockfile</text>
  <text x="38" y="134.5" font-size="4" font-family="system-ui" alignment-baseline="middle" text-anchor="end">with lockfile</text>
  <text x="38" y="162.5" font-size="4" font-family="system-ui" alignment-baseline="middle" text-anchor="end">with node_modules</text>
  <text x="38" y="166.5" font-size="4" font-family="system-ui" alignment-baseline="middle" text-anchor="end">with lockfile</text>
  <text x="290" y="197" font-size="4" font-family="system-ui" text-anchor="end" fill="#888">Tests were run using Node.js v8.11.3</text>
</svg>
